<svg width="24" height="29" viewBox="0 0 24 29" fill="none" xmlns="http://www.w3.org/2000/svg">
<path d="M6.67502 19.9375C6.0537 19.9375 5.55002 20.4412 5.55002 21.0625C5.55002 21.6838 6.0537 22.1875 6.67502 22.1875H15.8625C16.4838 22.1875 16.9875 21.6838 16.9875 21.0625C16.9875 20.4412 16.4838 19.9375 15.8625 19.9375H6.67502Z" fill="#23B9D8"/>
<path d="M5.55002 15.8125C5.55002 15.1912 6.0537 14.6875 6.67502 14.6875H15.8625C16.4838 14.6875 16.9875 15.1912 16.9875 15.8125C16.9875 16.4338 16.4838 16.9375 15.8625 16.9375H6.67502C6.0537 16.9375 5.55002 16.4338 5.55002 15.8125Z" fill="#23B9D8"/>
<path d="M6.67502 9.4375C6.0537 9.4375 5.55002 9.94118 5.55002 10.5625C5.55002 11.1838 6.0537 11.6875 6.67502 11.6875H7.98752C8.60884 11.6875 9.11252 11.1838 9.11252 10.5625C9.11252 9.94118 8.60884 9.4375 7.98752 9.4375H6.67502Z" fill="#23B9D8"/>
<path fill-rule="evenodd" clip-rule="evenodd" d="M0.299988 4C0.299988 1.92893 1.97892 0.25 4.04999 0.25H12.1502C13.1447 0.25 14.0985 0.645095 14.8018 1.34833L22.4516 8.99813C23.1549 9.70142 23.55 10.6553 23.55 11.6498V25C23.55 27.0711 21.8711 28.75 19.8 28.75H4.04999C1.97893 28.75 0.299988 27.0711 0.299988 25V4ZM4.04999 2.5C3.22156 2.5 2.54999 3.17157 2.54999 4V25C2.54999 25.8285 3.22155 26.5 4.04999 26.5H19.8C20.6285 26.5 21.3 25.8285 21.3 25V11.6719C21.239 11.6822 21.1764 11.6875 21.1125 11.6875H13.2375C12.6162 11.6875 12.1125 11.1838 12.1125 10.5625V2.5H4.04999ZM14.3625 4.091L19.709 9.43749H14.3625V4.091Z" fill="#23B9D8"/>
</svg>
