<svg width="65" height="36" viewBox="0 0 65 36" fill="none" xmlns="http://www.w3.org/2000/svg">
<path d="M7.2 36C3.22355 36 -1.40906e-07 32.7765 -3.14722e-07 28.8L-1.25889e-06 7.2C-1.4327e-06 3.22356 3.22355 3.67379e-06 7.2 3.49998e-06L32.4 2.39845e-06L32.4 36L7.2 36Z" fill="#F0F3F8"/>
<path d="M7.2 36C3.22355 36 -1.40906e-07 32.7765 -3.14722e-07 28.8L-1.25889e-06 7.2C-1.4327e-06 3.22356 3.22355 3.67379e-06 7.2 3.49998e-06L32.4 2.39845e-06L32.4 36L7.2 36Z" fill="#23B9D8"/>
<path fill-rule="evenodd" clip-rule="evenodd" d="M16.2 9C16.5976 9 16.92 9.32235 16.92 9.72V11.16C16.92 11.5576 16.5976 11.88 16.2 11.88C15.8024 11.88 15.48 11.5576 15.48 11.16V9.72C15.48 9.32235 15.8024 9 16.2 9ZM16.2 14.76C14.6094 14.76 13.32 16.0494 13.32 17.64C13.32 19.2306 14.6094 20.52 16.2 20.52C17.7906 20.52 19.08 19.2306 19.08 17.64C19.08 16.0494 17.7906 14.76 16.2 14.76ZM11.88 17.64C11.88 15.2541 13.8141 13.32 16.2 13.32C18.5859 13.32 20.52 15.2541 20.52 17.64C20.52 20.0259 18.5859 21.96 16.2 21.96C13.8141 21.96 11.88 20.0259 11.88 17.64ZM16.92 24.12C16.92 23.7224 16.5976 23.4 16.2 23.4C15.8024 23.4 15.48 23.7224 15.48 24.12V25.56C15.48 25.9576 15.8024 26.28 16.2 26.28C16.5976 26.28 16.92 25.9576 16.92 25.56V24.12ZM10.0893 11.5293C10.3704 11.2481 10.8263 11.2481 11.1075 11.5293L12.1299 12.5517C12.4111 12.8329 12.4111 13.2887 12.1299 13.5699C11.8487 13.8511 11.3928 13.8511 11.1117 13.5699L10.0893 12.5475C9.80808 12.2663 9.80808 11.8105 10.0893 11.5293ZM21.2883 21.7101C21.0071 21.4289 20.5512 21.4289 20.2701 21.7101C19.9889 21.9913 19.9889 22.4471 20.2701 22.7283L21.2925 23.7507C21.5736 24.0319 22.0295 24.0319 22.3107 23.7507C22.5919 23.4695 22.5919 23.0137 22.3107 22.7325L21.2883 21.7101ZM7.56 17.64C7.56 17.2424 7.88235 16.92 8.28 16.92H9.72C10.1176 16.92 10.44 17.2424 10.44 17.64C10.44 18.0376 10.1176 18.36 9.72 18.36H8.28C7.88235 18.36 7.56 18.0376 7.56 17.64ZM22.68 16.92C22.2824 16.92 21.96 17.2424 21.96 17.64C21.96 18.0376 22.2824 18.36 22.68 18.36H24.12C24.5176 18.36 24.84 18.0376 24.84 17.64C24.84 17.2424 24.5176 16.92 24.12 16.92H22.68ZM12.1299 21.7101C12.4111 21.9913 12.4111 22.4471 12.1299 22.7283L11.1075 23.7507C10.8263 24.0319 10.3704 24.0319 10.0893 23.7507C9.80808 23.4695 9.80808 23.0137 10.0893 22.7325L11.1117 21.7101C11.3928 21.4289 11.8487 21.4289 12.1299 21.7101ZM22.3107 12.5475C22.5919 12.2663 22.5919 11.8105 22.3107 11.5293C22.0295 11.2481 21.5736 11.2481 21.2925 11.5293L20.2701 12.5517C19.9889 12.8329 19.9889 13.2887 20.2701 13.5699C20.5512 13.8511 21.0071 13.8511 21.2883 13.5699L22.3107 12.5475Z" fill="#8E91AA"/>
<path fill-rule="evenodd" clip-rule="evenodd" d="M16.2 9C16.5976 9 16.92 9.32235 16.92 9.72V11.16C16.92 11.5576 16.5976 11.88 16.2 11.88C15.8024 11.88 15.48 11.5576 15.48 11.16V9.72C15.48 9.32235 15.8024 9 16.2 9ZM16.2 14.76C14.6094 14.76 13.32 16.0494 13.32 17.64C13.32 19.2306 14.6094 20.52 16.2 20.52C17.7906 20.52 19.08 19.2306 19.08 17.64C19.08 16.0494 17.7906 14.76 16.2 14.76ZM11.88 17.64C11.88 15.2541 13.8141 13.32 16.2 13.32C18.5859 13.32 20.52 15.2541 20.52 17.64C20.52 20.0259 18.5859 21.96 16.2 21.96C13.8141 21.96 11.88 20.0259 11.88 17.64ZM16.92 24.12C16.92 23.7224 16.5976 23.4 16.2 23.4C15.8024 23.4 15.48 23.7224 15.48 24.12V25.56C15.48 25.9576 15.8024 26.28 16.2 26.28C16.5976 26.28 16.92 25.9576 16.92 25.56V24.12ZM10.0893 11.5293C10.3704 11.2481 10.8263 11.2481 11.1075 11.5293L12.1299 12.5517C12.4111 12.8329 12.4111 13.2887 12.1299 13.5699C11.8487 13.8511 11.3928 13.8511 11.1117 13.5699L10.0893 12.5475C9.80808 12.2663 9.80808 11.8105 10.0893 11.5293ZM21.2883 21.7101C21.0071 21.4289 20.5512 21.4289 20.2701 21.7101C19.9889 21.9913 19.9889 22.4471 20.2701 22.7283L21.2925 23.7507C21.5736 24.0319 22.0295 24.0319 22.3107 23.7507C22.5919 23.4695 22.5919 23.0137 22.3107 22.7325L21.2883 21.7101ZM7.56 17.64C7.56 17.2424 7.88235 16.92 8.28 16.92H9.72C10.1176 16.92 10.44 17.2424 10.44 17.64C10.44 18.0376 10.1176 18.36 9.72 18.36H8.28C7.88235 18.36 7.56 18.0376 7.56 17.64ZM22.68 16.92C22.2824 16.92 21.96 17.2424 21.96 17.64C21.96 18.0376 22.2824 18.36 22.68 18.36H24.12C24.5176 18.36 24.84 18.0376 24.84 17.64C24.84 17.2424 24.5176 16.92 24.12 16.92H22.68ZM12.1299 21.7101C12.4111 21.9913 12.4111 22.4471 12.1299 22.7283L11.1075 23.7507C10.8263 24.0319 10.3704 24.0319 10.0893 23.7507C9.80808 23.4695 9.80808 23.0137 10.0893 22.7325L11.1117 21.7101C11.3928 21.4289 11.8487 21.4289 12.1299 21.7101ZM22.3107 12.5475C22.5919 12.2663 22.5919 11.8105 22.3107 11.5293C22.0295 11.2481 21.5736 11.2481 21.2925 11.5293L20.2701 12.5517C19.9889 12.8329 19.9889 13.2887 20.2701 13.5699C20.5512 13.8511 21.0071 13.8511 21.2883 13.5699L22.3107 12.5475Z" fill="#F0F3F8"/>
<path d="M32.4 36L32.4 3.8147e-06L57.6 2.71317e-06C61.5765 2.53935e-06 64.8 3.22355 64.8 7.2L64.8 28.8C64.8 32.7764 61.5765 36 57.6 36L32.4 36Z" fill="#D6DCE6"/>
<path d="M42.1475 18.2087C42.2608 19.4343 42.7207 20.6023 43.4736 21.576C44.2264 22.5497 45.241 23.2889 46.3986 23.707C47.5562 24.1252 48.809 24.205 50.0103 23.9371C51.2116 23.6692 52.3118 23.0648 53.1821 22.1945C54.0524 21.3242 54.6568 20.224 54.9247 19.0227C55.1926 17.8214 55.1128 16.5686 54.6946 15.411C54.2765 14.2534 53.5373 13.2388 52.5636 12.486C51.5899 11.7331 50.4219 11.2732 49.1963 11.1599C49.9139 12.1307 50.2591 13.3267 50.1694 14.5305C50.0796 15.7343 49.5607 16.866 48.7071 17.7195C47.8536 18.5731 46.7219 19.092 45.5181 19.1818C44.3143 19.2715 43.1183 18.9263 42.1475 18.2087Z" fill="#F0F3F8"/>
<path d="M42.1475 18.2087C42.2608 19.4343 42.7207 20.6023 43.4736 21.576C44.2264 22.5497 45.241 23.2889 46.3986 23.707C47.5562 24.1252 48.809 24.205 50.0103 23.9371C51.2116 23.6692 52.3118 23.0648 53.1821 22.1945C54.0524 21.3242 54.6568 20.224 54.9247 19.0227C55.1926 17.8214 55.1128 16.5686 54.6946 15.411C54.2765 14.2534 53.5373 13.2388 52.5636 12.486C51.5899 11.7331 50.4219 11.2732 49.1963 11.1599C49.9139 12.1307 50.2591 13.3267 50.1694 14.5305C50.0796 15.7343 49.5607 16.866 48.7071 17.7195C47.8536 18.5731 46.7219 19.092 45.5181 19.1818C44.3143 19.2715 43.1183 18.9263 42.1475 18.2087Z" fill="#8E90AA"/>
</svg>
