<svg width="65" height="36" viewBox="0 0 65 36" fill="none" xmlns="http://www.w3.org/2000/svg">
<path d="M7.2 36C3.22355 36 -1.40906e-07 32.7765 -3.14722e-07 28.8L-1.25889e-06 7.2C-1.4327e-06 3.22356 3.22355 3.67379e-06 7.2 3.49998e-06L32.4 2.39845e-06L32.4 36L7.2 36Z" fill="#7D838D"/>
<path d="M7.2 36C3.22355 36 -1.40906e-07 32.7765 -3.14722e-07 28.8L-1.25889e-06 7.2C-1.4327e-06 3.22356 3.22355 3.67379e-06 7.2 3.49998e-06L32.4 2.39845e-06L32.4 36L7.2 36Z" fill="#45484E"/>
<path fill-rule="evenodd" clip-rule="evenodd" d="M16.2001 9C16.5977 9 16.9201 9.32235 16.9201 9.72V11.16C16.9201 11.5576 16.5977 11.88 16.2001 11.88C15.8024 11.88 15.4801 11.5576 15.4801 11.16V9.72C15.4801 9.32235 15.8024 9 16.2001 9ZM16.2001 14.76C14.6095 14.76 13.3201 16.0494 13.3201 17.64C13.3201 19.2306 14.6095 20.52 16.2001 20.52C17.7906 20.52 19.0801 19.2306 19.0801 17.64C19.0801 16.0494 17.7906 14.76 16.2001 14.76ZM11.8801 17.64C11.8801 15.2541 13.8142 13.32 16.2001 13.32C18.5859 13.32 20.5201 15.2541 20.5201 17.64C20.5201 20.0259 18.5859 21.96 16.2001 21.96C13.8142 21.96 11.8801 20.0259 11.8801 17.64ZM16.9201 24.12C16.9201 23.7224 16.5977 23.4 16.2001 23.4C15.8024 23.4 15.4801 23.7224 15.4801 24.12V25.56C15.4801 25.9576 15.8024 26.28 16.2001 26.28C16.5977 26.28 16.9201 25.9576 16.9201 25.56V24.12ZM10.0893 11.5293C10.3705 11.2481 10.8264 11.2481 11.1076 11.5293L12.13 12.5517C12.4111 12.8329 12.4111 13.2887 12.13 13.5699C11.8488 13.8511 11.3929 13.8511 11.1117 13.5699L10.0893 12.5475C9.80814 12.2663 9.80814 11.8105 10.0893 11.5293ZM21.2884 21.7101C21.0072 21.4289 20.5513 21.4289 20.2701 21.7101C19.989 21.9913 19.989 22.4471 20.2701 22.7283L21.2925 23.7507C21.5737 24.0319 22.0296 24.0319 22.3108 23.7507C22.5919 23.4695 22.5919 23.0137 22.3108 22.7325L21.2884 21.7101ZM7.56006 17.64C7.56006 17.2424 7.88241 16.92 8.28006 16.92H9.72006C10.1177 16.92 10.4401 17.2424 10.4401 17.64C10.4401 18.0376 10.1177 18.36 9.72006 18.36H8.28006C7.88241 18.36 7.56006 18.0376 7.56006 17.64ZM22.6801 16.92C22.2824 16.92 21.9601 17.2424 21.9601 17.64C21.9601 18.0376 22.2824 18.36 22.6801 18.36H24.1201C24.5177 18.36 24.8401 18.0376 24.8401 17.64C24.8401 17.2424 24.5177 16.92 24.1201 16.92H22.6801ZM12.13 21.7101C12.4111 21.9913 12.4111 22.4471 12.13 22.7283L11.1076 23.7507C10.8264 24.0319 10.3705 24.0319 10.0893 23.7507C9.80814 23.4695 9.80814 23.0137 10.0893 22.7325L11.1117 21.7101C11.3929 21.4289 11.8488 21.4289 12.13 21.7101ZM22.3108 12.5475C22.5919 12.2663 22.5919 11.8105 22.3108 11.5293C22.0296 11.2481 21.5737 11.2481 21.2925 11.5293L20.2701 12.5517C19.989 12.8329 19.989 13.2887 20.2701 13.5699C20.5513 13.8511 21.0072 13.8511 21.2884 13.5699L22.3108 12.5475Z" fill="#8E91AA"/>
<path fill-rule="evenodd" clip-rule="evenodd" d="M16.2001 9C16.5977 9 16.9201 9.32235 16.9201 9.72V11.16C16.9201 11.5576 16.5977 11.88 16.2001 11.88C15.8024 11.88 15.4801 11.5576 15.4801 11.16V9.72C15.4801 9.32235 15.8024 9 16.2001 9ZM16.2001 14.76C14.6095 14.76 13.3201 16.0494 13.3201 17.64C13.3201 19.2306 14.6095 20.52 16.2001 20.52C17.7906 20.52 19.0801 19.2306 19.0801 17.64C19.0801 16.0494 17.7906 14.76 16.2001 14.76ZM11.8801 17.64C11.8801 15.2541 13.8142 13.32 16.2001 13.32C18.5859 13.32 20.5201 15.2541 20.5201 17.64C20.5201 20.0259 18.5859 21.96 16.2001 21.96C13.8142 21.96 11.8801 20.0259 11.8801 17.64ZM16.9201 24.12C16.9201 23.7224 16.5977 23.4 16.2001 23.4C15.8024 23.4 15.4801 23.7224 15.4801 24.12V25.56C15.4801 25.9576 15.8024 26.28 16.2001 26.28C16.5977 26.28 16.9201 25.9576 16.9201 25.56V24.12ZM10.0893 11.5293C10.3705 11.2481 10.8264 11.2481 11.1076 11.5293L12.13 12.5517C12.4111 12.8329 12.4111 13.2887 12.13 13.5699C11.8488 13.8511 11.3929 13.8511 11.1117 13.5699L10.0893 12.5475C9.80814 12.2663 9.80814 11.8105 10.0893 11.5293ZM21.2884 21.7101C21.0072 21.4289 20.5513 21.4289 20.2701 21.7101C19.989 21.9913 19.989 22.4471 20.2701 22.7283L21.2925 23.7507C21.5737 24.0319 22.0296 24.0319 22.3108 23.7507C22.5919 23.4695 22.5919 23.0137 22.3108 22.7325L21.2884 21.7101ZM7.56006 17.64C7.56006 17.2424 7.88241 16.92 8.28006 16.92H9.72006C10.1177 16.92 10.4401 17.2424 10.4401 17.64C10.4401 18.0376 10.1177 18.36 9.72006 18.36H8.28006C7.88241 18.36 7.56006 18.0376 7.56006 17.64ZM22.6801 16.92C22.2824 16.92 21.9601 17.2424 21.9601 17.64C21.9601 18.0376 22.2824 18.36 22.6801 18.36H24.1201C24.5177 18.36 24.8401 18.0376 24.8401 17.64C24.8401 17.2424 24.5177 16.92 24.1201 16.92H22.6801ZM12.13 21.7101C12.4111 21.9913 12.4111 22.4471 12.13 22.7283L11.1076 23.7507C10.8264 24.0319 10.3705 24.0319 10.0893 23.7507C9.80814 23.4695 9.80814 23.0137 10.0893 22.7325L11.1117 21.7101C11.3929 21.4289 11.8488 21.4289 12.13 21.7101ZM22.3108 12.5475C22.5919 12.2663 22.5919 11.8105 22.3108 11.5293C22.0296 11.2481 21.5737 11.2481 21.2925 11.5293L20.2701 12.5517C19.989 12.8329 19.989 13.2887 20.2701 13.5699C20.5513 13.8511 21.0072 13.8511 21.2884 13.5699L22.3108 12.5475Z" fill="#7D838D"/>
<path d="M32.4 36L32.4 3.8147e-06L57.6 2.71317e-06C61.5765 2.53935e-06 64.8 3.22355 64.8 7.2L64.8 28.8C64.8 32.7764 61.5765 36 57.6 36L32.4 36Z" fill="#23B9D8"/>
<path d="M42.1475 18.2087C42.2607 19.4343 42.7207 20.6023 43.4735 21.576C44.2264 22.5497 45.2409 23.2889 46.3985 23.707C47.5562 24.1252 48.8089 24.205 50.0102 23.9371C51.2115 23.6692 52.3117 23.0648 53.182 22.1945C54.0523 21.3242 54.6568 20.224 54.9246 19.0227C55.1925 17.8214 55.1127 16.5686 54.6946 15.411C54.2764 14.2534 53.5373 13.2388 52.5635 12.486C51.5898 11.7331 50.4218 11.2732 49.1962 11.1599C49.9138 12.1307 50.2591 13.3267 50.1693 14.5305C50.0795 15.7343 49.5607 16.866 48.7071 17.7195C47.8535 18.5731 46.7219 19.092 45.5181 19.1818C44.3143 19.2715 43.1182 18.9263 42.1475 18.2087Z" fill="#7D838D"/>
<path d="M42.1475 18.2087C42.2607 19.4343 42.7207 20.6023 43.4735 21.576C44.2264 22.5497 45.2409 23.2889 46.3985 23.707C47.5562 24.1252 48.8089 24.205 50.0102 23.9371C51.2115 23.6692 52.3117 23.0648 53.182 22.1945C54.0523 21.3242 54.6568 20.224 54.9246 19.0227C55.1925 17.8214 55.1127 16.5686 54.6946 15.411C54.2764 14.2534 53.5373 13.2388 52.5635 12.486C51.5898 11.7331 50.4218 11.2732 49.1962 11.1599C49.9138 12.1307 50.2591 13.3267 50.1693 14.5305C50.0795 15.7343 49.5607 16.866 48.7071 17.7195C47.8535 18.5731 46.7219 19.092 45.5181 19.1818C44.3143 19.2715 43.1182 18.9263 42.1475 18.2087Z" fill="white"/>
</svg>
