<svg width="32.4" height="31.5" viewBox="0 0 29 33" fill="none" xmlns="http://www.w3.org/2000/svg">
<path fill-rule="evenodd" clip-rule="evenodd" d="M14.35 0.75C11.7602 0.75 9.27646 1.80613 7.44518 3.68606C5.6139 5.56599 4.5851 8.11572 4.5851 10.7743C4.5851 15.5755 3.5848 18.557 2.66295 20.2919C2.2001 21.1631 1.7494 21.7345 1.43633 22.0738C1.27943 22.2438 1.15613 22.3565 1.08189 22.42C1.04476 22.4518 1.01985 22.4713 1.00911 22.4795L1.00513 22.4825C0.505043 22.8351 0.283743 23.4802 0.459989 24.0778C0.638127 24.6817 1.1804 25.0948 1.79512 25.0948H26.9049C27.5197 25.0948 28.0619 24.6817 28.2401 24.0778C28.4163 23.4802 28.195 22.8351 27.6949 22.4825L27.6909 22.4795C27.6802 22.4713 27.6553 22.4518 27.6182 22.42C27.5439 22.3565 27.4206 22.2438 27.2637 22.0738C26.9506 21.7345 26.4999 21.1631 26.0371 20.2919C25.1153 18.557 24.1149 15.5755 24.1149 10.7743C24.1149 8.11572 23.0861 5.56599 21.2549 3.68606C19.4236 1.80613 16.9398 0.75 14.35 0.75ZM23.5878 21.6634C23.6939 21.8632 23.8005 22.0522 23.9066 22.2307H4.79341C4.89955 22.0522 5.0061 21.8632 5.11226 21.6634C6.2829 19.4602 7.37508 15.9975 7.37508 10.7743C7.37508 8.87533 8.10994 7.05409 9.41799 5.71128C10.726 4.36848 12.5002 3.6141 14.35 3.6141C16.1999 3.6141 17.974 4.36848 19.2821 5.71128C20.5901 7.05409 21.325 8.87533 21.325 10.7743C21.325 15.9975 22.4172 19.4602 23.5878 21.6634Z" fill="#BDBFCC"/>
<path d="M13.1433 28.6724C12.7568 27.9883 11.9031 27.7554 11.2367 28.1523C10.5703 28.5491 10.3434 29.4254 10.73 30.1095C11.0979 30.7606 11.6259 31.301 12.2612 31.6766C12.8966 32.0523 13.6168 32.25 14.35 32.25C15.0832 32.25 15.8035 32.0523 16.4388 31.6766C17.0741 31.301 17.6021 30.7606 17.97 30.1095C18.3566 29.4254 18.1297 28.5491 17.4633 28.1523C16.7969 27.7554 15.9433 27.9883 15.5567 28.6724C15.434 28.8894 15.258 29.0696 15.0463 29.1948C14.8345 29.32 14.5944 29.3859 14.35 29.3859C14.1056 29.3859 13.8655 29.32 13.6538 29.1948C13.442 29.0696 13.266 28.8894 13.1433 28.6724Z" fill="#BDBFCC"/>
</svg>
