<svg width="23.25" height="28.5" viewBox="0 0 33 33" fill="none" xmlns="http://www.w3.org/2000/svg">
<path d="M31.7217 0.75H0.678158C0.303589 0.75 0 1.04516 0 1.40932V7.0683C0 7.43247 0.303589 7.72762 0.678158 7.72762H2.61845C3.31439 7.72762 3.88057 8.27809 3.88057 8.95463C3.88057 9.63116 3.31439 10.1816 2.61845 10.1816H0.678158C0.303589 10.1816 0 10.4768 0 10.841V22.159C0 22.5231 0.303589 22.8183 0.678158 22.8183H2.61845C3.31439 22.8183 3.88057 23.3688 3.88057 24.0453C3.88057 24.7218 3.31439 25.2723 2.61845 25.2723H0.678158C0.303589 25.2723 0 25.5675 0 25.9316V31.5907C0 31.9548 0.303589 32.25 0.678158 32.25H16.1999C16.5745 32.25 16.8781 31.9548 16.8781 31.5907V25.9316C16.8781 25.5675 16.5745 25.2723 16.1999 25.2723H14.2596C13.5638 25.2723 12.9976 24.7218 12.9976 24.0452C12.9976 23.3687 13.5637 22.8183 14.2596 22.8183H16.1999C16.5745 22.8183 16.8781 22.5231 16.8781 22.159V17.1593H21.3425V18.3864C21.3425 19.79 22.517 20.932 23.9609 20.932C25.4048 20.932 26.5794 19.79 26.5794 18.3864V17.1593H31.7218C32.0964 17.1593 32.4 16.8642 32.4 16.5V1.40932C32.3998 1.04516 32.0963 0.75 31.7217 0.75ZM15.5218 21.4997H14.2596C12.8159 21.4997 11.6413 22.6416 11.6413 24.0453C11.6413 25.449 12.8158 26.591 14.2596 26.591H15.5218V30.9314H1.35632V26.591H2.61845C4.06224 26.591 5.23689 25.4489 5.23689 24.0452C5.23689 22.6416 4.06232 21.4997 2.61845 21.4997H1.35632V17.1593H6.49879C6.87336 17.1593 7.17695 16.8642 7.17695 16.5V14.6136C7.17695 13.9371 7.74321 13.3867 8.43915 13.3867C9.13494 13.3867 9.70113 13.9371 9.70113 14.6136V16.5C9.70113 16.8642 10.0047 17.1593 10.3793 17.1593H15.5218V21.4997H15.5218ZM16.1999 10.1816C15.8254 10.1816 15.5218 10.4768 15.5218 10.841V15.8407H11.0574V14.6136C11.0574 13.21 9.8828 12.068 8.43893 12.068C6.99505 12.068 5.82048 13.21 5.82048 14.6136V15.8407H1.35632V11.5003H2.61845C4.06224 11.5003 5.23689 10.3583 5.23689 8.95455C5.23689 7.55093 4.06232 6.40898 2.61845 6.40898H1.35632V2.06865H15.5218V7.0683C15.5218 7.43247 15.8254 7.72762 16.1999 7.72762H18.1402C18.836 7.72762 19.4022 8.27809 19.4022 8.95463C19.4022 9.63116 18.8361 10.1816 18.1402 10.1816H16.1999ZM31.0435 15.8407H25.9011C25.5266 15.8407 25.223 16.1358 25.223 16.5V18.3864C25.223 19.0629 24.6568 19.6133 23.9608 19.6133C23.265 19.6133 22.6988 19.0629 22.6988 18.3864V16.5C22.6988 16.1358 22.3952 15.8407 22.0206 15.8407H16.8781V11.5003H18.1402C19.5839 11.5003 20.7585 10.3583 20.7585 8.95455C20.7585 7.55093 19.5839 6.40898 18.1402 6.40898H16.8781V2.06865H31.0435V15.8407Z" fill="#23B9D8"/>
</svg>
